<?xml version="1.0" encoding="utf-8" standalone="no"?>
<svg xmlns:dc="http://purl.org/dc/elements/1.1/" xmlns:cc="http://creativecommons.org/ns#" xmlns:rdf="http://www.w3.org/1999/02/22-rdf-syntax-ns#" xmlns:svg="http://www.w3.org/2000/svg" xmlns="http://www.w3.org/2000/svg" xmlns:sodipodi="http://sodipodi.sourceforge.net/DTD/sodipodi-0.dtd" xmlns:inkscape="http://www.inkscape.org/namespaces/inkscape" width="102.77778mm" height="102.77778mm" viewBox="0 0 364.17322 364.17323" id="svg2" version="1.1" inkscape:version="0.91 r13725">
  <defs id="defs4">
    <filter style="color-interpolation-filters:sRGB" id="filter5685" x="-0.0838132" width="1.1676264" y="-0.39040253" height="1.7808051">
      <feGaussianBlur stdDeviation="1.9081688" id="feGaussianBlur5687"/>
    </filter>
  </defs>
  
  <metadata id="metadata7">
    
  </metadata>
  <g inkscape:label="Layer 1" id="layer1" transform="translate(-222.77371,-223.46737)">
    <circle style="opacity:0.98000004;fill:#93a7ac;fill-opacity:1;stroke:#6f918a;stroke-width:0;stroke-linecap:round;stroke-linejoin:round;stroke-miterlimit:4;stroke-dasharray:none;stroke-dashoffset:0;stroke-opacity:1" id="path5916" cx="404.86032" cy="405.55399" r="165"/>
    <circle cy="405.55399" cx="404.86032" id="circle4261" style="opacity:0.98000004;fill:#b7c8c4;fill-opacity:1;stroke:#6f918a;stroke-width:0;stroke-linecap:round;stroke-linejoin:round;stroke-miterlimit:4;stroke-dasharray:none;stroke-dashoffset:0;stroke-opacity:1" r="155"/>
    <path style="fill:#000000;fill-opacity:0.19607843;stroke:none;stroke-width:2;stroke-miterlimit:4;stroke-dasharray:none;stroke-opacity:1" d="M 223.58594 47.517578 L 223.58594 130.51758 L 140.58594 130.51758 L 222.92773 212.85938 C 222.47256 213.47557 222.06137 214.02609 221.58789 214.66797 C 218.339 219.33316 218.75822 231.04678 221.58789 233.71289 C 226.68835 243.79005 238.90296 243.74946 247.56055 248.76758 L 263.29102 264.56055 L 263.29102 282.9082 L 229.92383 282.9082 C 191.98528 259.76099 192.19378 259.76099 154.46484 282.9082 L 121.34766 282.9082 L 185.4082 346.96875 A 165 165 0 0 0 346.5 193.78516 L 346.48047 193.76562 A 165 165 0 0 0 347.08594 182.08594 A 165 165 0 0 0 346.68164 170.61133 L 223.58594 47.517578 z M 232.31445 200.58984 C 231.5826 201.48111 230.83142 202.42177 230.06641 203.39844 C 230.8306 202.42342 231.58303 201.47989 232.31445 200.58984 z M 227.29688 207.00781 C 227.03623 207.35273 226.78571 207.67858 226.51953 208.0332 C 226.78262 207.68278 227.03917 207.34877 227.29688 207.00781 z " transform="translate(222.77371,223.46737)" id="path4330"/>
    <rect width="83.000008" height="83.000008" rx="0" ry="0" x="363.36032" y="270.98477" id="rect22" style="fill:#ff6600"/>
    <circle style="fill:#ffffff" cx="384.61642" cy="333.06598" r="8.0975609" id="circle26"/>
    <path style="fill:#ffffff" d="m 415.65708,341.16357 -11.47153,0 a 27.666667,27.666667 0 0 0 -27.66668,-27.66666 l 0,-11.47155 a 39.138211,39.138211 0 0 1 39.13821,39.13821 z" id="path28"/>
    <path style="fill:#ffffff" d="M 423.75466,341.16357 A 47.235773,47.235773 0 0 0 376.51887,293.9278 l 0,-11.80894 a 59.044715,59.044715 0 0 1 59.04473,59.04471 z" id="path30"/>
    <path style="fill:#000000;stroke:none;stroke-width:2;stroke-miterlimit:4;stroke-dasharray:none;stroke-opacity:1;fill-opacity:0.19457014" d="m 285.80496,408.33065 68.07813,68.07813 5.5957,-6.32227 c 19.19934,-6.1702 20.93829,-8.5497 25.04297,-11.92578 0.14821,-3.77953 -0.0702,-6.44854 -1.25586,-13.65039 -1.98515,-4.47459 0.13446,-9.19906 -23.53516,-13.64063 -22.54302,-0.9011 -53.70032,-11.57397 -73.92578,-22.53906 z" id="path4220"/>
    <path style="fill:#ff8000;fill-opacity:1" d="M 140.58594 47.517578 L 140.58594 49.517578 L 140.58594 130.51758 L 142.58594 130.51758 L 142.58594 49.517578 L 223.58594 49.517578 L 223.58594 47.517578 L 142.58594 47.517578 L 140.58594 47.517578 z " transform="translate(222.77371,223.46737)" id="rect4333"/>
    <path style="opacity:0.5;fill:#ffffff;fill-opacity:1;stroke:none;stroke-width:2;stroke-miterlimit:4;stroke-dasharray:none;stroke-opacity:1;filter:url(#filter5685)" d="m 404.49246,463.36581 -17.32031,10 1,1.73047 16.85351,-9.73047 18.9336,0 16.85351,9.73047 1,-1.73047 -17.32031,-10 -20,0 z" id="rect4674"/>
    <path style="opacity:0.98000004;fill:#000000;fill-opacity:0.31545739;stroke:none;stroke-width:20;stroke-linecap:round;stroke-linejoin:round;stroke-miterlimit:4;stroke-dasharray:none;stroke-dashoffset:0;stroke-opacity:1" d="m 347.38309,506.37557 -3.26172,-2.29101 0,2.29101 3.26172,0 z" id="path4243"/>
    <path style="fill:#000000;fill-rule:evenodd;stroke:#c8beb7;stroke-width:1px;stroke-linecap:butt;stroke-linejoin:miter;stroke-opacity:1" d="m 265.91265,388.43752 88.3351,0 0,-2.63756 13.97834,0 0,-1.47301 2.72487,0 0,-4.62944 160.76721,0 0,8.62759 -2.30567,0 0,9.25889 c -61.46798,8.88768 -61.73124,8.93733 -85.05107,40.55135 -3.24889,4.66519 -2.82967,16.37976 0,19.04587 5.10046,10.07716 17.31516,10.03621 25.97275,15.05433 l 15.73052,15.79234 0,18.34798 -33.3677,0 c -37.93855,-23.14721 -37.72893,-23.14721 -75.45787,0 l -33.11763,0 0,-18.93863 15.35821,-17.34983 c 19.19934,-6.1702 20.93824,-8.5514 25.04292,-11.92748 0.14821,-3.77953 -0.072,-6.44838 -1.25763,-13.65023 -1.98515,-4.47459 0.13633,-9.19879 -23.53329,-13.64036 -37.98039,-1.51818 -100.41671,-30.77586 -93.81906,-42.43181 z" id="path4147"/>
    <path style="opacity:0.98000004;fill:#808080;fill-opacity:1;stroke:none;stroke-width:1;stroke-linecap:round;stroke-linejoin:round;stroke-miterlimit:4;stroke-dasharray:none;stroke-dashoffset:0;stroke-opacity:0.78431373" d="m 452.697,491.86859 33.3677,0 0,14.50727 -33.3677,0 z" id="rect5855-8"/>
    <path style="opacity:0.98000004;fill:#b3b3b3;fill-opacity:1;stroke:none;stroke-width:1;stroke-linecap:round;stroke-linejoin:round;stroke-miterlimit:4;stroke-dasharray:none;stroke-dashoffset:0;stroke-opacity:0.78431373" d="m 370.95096,379.69751 160.76721,0 0,4.62944 -160.76721,0 z" id="rect5689"/>
    <path style="opacity:0.98000004;fill:#666666;fill-opacity:1;stroke:none;stroke-width:1;stroke-linecap:round;stroke-linejoin:round;stroke-miterlimit:4;stroke-dasharray:none;stroke-dashoffset:0;stroke-opacity:0.78431373" d="M 145.45312 160.85938 L 145.45312 164.85742 L 145.45312 196.91797 L 146.38867 196.91797 L 146.38867 164.85742 L 308.94531 164.85742 L 308.94531 160.85938 L 145.45312 160.85938 z " transform="translate(222.77371,223.46737)" id="path5746"/>
    <path style="opacity:0.98000004;fill:#999999;fill-opacity:1;stroke:none;stroke-width:1;stroke-linecap:round;stroke-linejoin:round;stroke-miterlimit:4;stroke-dasharray:none;stroke-dashoffset:0;stroke-opacity:0.78431373" d="m 265.91238,388.43807 c -0.50924,0.89967 -0.6043,1.90365 -0.33398,2.99219 0.002,0.003 0.003,0.005 0.006,0.008 l 88.66406,0 0,-3 -88.33594,0 z" id="path5748"/>
    <path id="path4388" d="m 344.12137,491.8683 33.11718,0 0,14.50727 -33.11718,0 z" style="opacity:0.98000004;fill:#808080;fill-opacity:1;stroke:none;stroke-width:1;stroke-linecap:round;stroke-linejoin:round;stroke-miterlimit:4;stroke-dasharray:none;stroke-dashoffset:0;stroke-opacity:0.78431373"/>
    <path id="path4390" d="m 390.19699,441.1543 44.43913,0 0,14.50727 -44.43913,0 z" style="opacity:0.98000004;fill:#333333;fill-opacity:1;stroke:none;stroke-width:1;stroke-linecap:round;stroke-linejoin:round;stroke-miterlimit:4;stroke-dasharray:none;stroke-dashoffset:0;stroke-opacity:0.78431373"/>
  </g>
</svg>
